<svg xmlns="http://www.w3.org/2000/svg" width="1200" height="900" viewBox="0 0 1200 900" fill="none">
  <title>M8Shift icon without text on transparent background</title>
  <desc>Vector recreation of the M8Shift robot-infinity icon, with text removed and no background.</desc>

  <defs>
    <linearGradient id="infinityGradient" x1="140" y1="210" x2="1060" y2="650" gradientUnits="userSpaceOnUse">
      <stop offset="0" stop-color="#FFD335"/>
      <stop offset="0.28" stop-color="#FF7A00"/>
      <stop offset="0.50" stop-color="#FF3FB4"/>
      <stop offset="0.72" stop-color="#7D2BFF"/>
      <stop offset="1" stop-color="#4014D8"/>
    </linearGradient>

    <linearGradient id="orangeFace" x1="292" y1="342" x2="458" y2="425" gradientUnits="userSpaceOnUse">
      <stop offset="0" stop-color="#FF9E00"/>
      <stop offset="1" stop-color="#FF3B00"/>
    </linearGradient>

    <linearGradient id="purpleFace" x1="742" y1="342" x2="908" y2="425" gradientUnits="userSpaceOnUse">
      <stop offset="0" stop-color="#5A13E8"/>
      <stop offset="1" stop-color="#250091"/>
    </linearGradient>

    <linearGradient id="documentGradient" x1="456" y1="520" x2="744" y2="790" gradientUnits="userSpaceOnUse">
      <stop offset="0" stop-color="#FFB119"/>
      <stop offset="0.40" stop-color="#FF4E4E"/>
      <stop offset="0.67" stop-color="#B22CFF"/>
      <stop offset="1" stop-color="#4A16DF"/>
    </linearGradient>

    <linearGradient id="headShadeLeft" x1="255" y1="275" x2="502" y2="465" gradientUnits="userSpaceOnUse">
      <stop offset="0" stop-color="#FFFFFF"/>
      <stop offset="0.62" stop-color="#FFF7EF"/>
      <stop offset="1" stop-color="#F2D7C8"/>
    </linearGradient>

    <linearGradient id="headShadeRight" x1="695" y1="275" x2="942" y2="465" gradientUnits="userSpaceOnUse">
      <stop offset="0" stop-color="#FFFFFF"/>
      <stop offset="0.62" stop-color="#F7F2FF"/>
      <stop offset="1" stop-color="#D9CEFF"/>
    </linearGradient>

    <radialGradient id="orangeAntenna" cx="0" cy="0" r="1" gradientUnits="userSpaceOnUse" gradientTransform="translate(365 274) rotate(90) scale(24)">
      <stop offset="0" stop-color="#FFD56C"/>
      <stop offset="0.58" stop-color="#FF8B00"/>
      <stop offset="1" stop-color="#E44600"/>
    </radialGradient>

    <radialGradient id="purpleAntenna" cx="0" cy="0" r="1" gradientUnits="userSpaceOnUse" gradientTransform="translate(835 274) rotate(90) scale(24)">
      <stop offset="0" stop-color="#B991FF"/>
      <stop offset="0.58" stop-color="#7429FF"/>
      <stop offset="1" stop-color="#2700A7"/>
    </radialGradient>

    <filter id="softShadow" x="-25%" y="-25%" width="150%" height="150%" color-interpolation-filters="sRGB">
      <feDropShadow dx="0" dy="22" stdDeviation="18" flood-color="#000000" flood-opacity="0.20"/>
    </filter>

    <filter id="smallShadow" x="-35%" y="-35%" width="170%" height="170%" color-interpolation-filters="sRGB">
      <feDropShadow dx="0" dy="10" stdDeviation="8" flood-color="#000000" flood-opacity="0.22"/>
    </filter>

    <filter id="innerGlow" x="-10%" y="-10%" width="120%" height="120%" color-interpolation-filters="sRGB">
      <feGaussianBlur in="SourceAlpha" stdDeviation="7" result="blur"/>
      <feOffset dy="2" result="offset"/>
      <feComposite in="offset" in2="SourceAlpha" operator="arithmetic" k2="-1" k3="1" result="inner"/>
      <feColorMatrix in="inner" type="matrix" values="0 0 0 0 1 0 0 0 0 1 0 0 0 0 1 0 0 0 .38 0"/>
      <feComposite in="SourceGraphic" in2="inner" operator="over"/>
    </filter>
  </defs>

  <!-- Transparent background intentionally left empty. Human civilization survives one missing rectangle. -->

  <g filter="url(#softShadow)">
    <path d="M201 390C231 206 428 151 544 318C578 367 600 417 620 450C640 417 662 367 696 318C812 151 1009 206 1039 390C1072 594 845 665 696 506C662 470 640 420 620 382C600 420 578 470 544 506C395 665 168 594 201 390Z"
          stroke="#000000" stroke-opacity="0.16" stroke-width="114" stroke-linecap="round" stroke-linejoin="round"/>
    <path d="M201 390C231 206 428 151 544 318C578 367 600 417 620 450C640 417 662 367 696 318C812 151 1009 206 1039 390C1072 594 845 665 696 506C662 470 640 420 620 382C600 420 578 470 544 506C395 665 168 594 201 390Z"
          stroke="url(#infinityGradient)" stroke-width="96" stroke-linecap="round" stroke-linejoin="round"/>
    <path d="M224 358C267 226 428 191 524 330C552 370 572 413 590 446" stroke="#FFFFFF" stroke-opacity="0.28" stroke-width="16" stroke-linecap="round"/>
    <path d="M671 332C767 191 933 225 976 359" stroke="#FFFFFF" stroke-opacity="0.30" stroke-width="16" stroke-linecap="round"/>
    <path d="M215 446C241 572 398 614 516 490" stroke="#A43400" stroke-opacity="0.34" stroke-width="14" stroke-linecap="round"/>
    <path d="M986 446C960 572 802 614 684 490" stroke="#15006A" stroke-opacity="0.34" stroke-width="14" stroke-linecap="round"/>
  </g>

  <g filter="url(#smallShadow)">
    <!-- Left robot -->
    <g>
      <rect x="244" y="303" width="264" height="168" rx="82" fill="url(#headShadeLeft)"/>
      <rect x="270" y="319" width="212" height="136" rx="68" fill="#FFFFFF" fill-opacity="0.55"/>
      <rect x="304" y="351" width="153" height="78" rx="32" fill="url(#orangeFace)"/>
      <rect x="346" y="371" width="28" height="40" rx="14" fill="#FFFFFF"/>
      <rect x="421" y="371" width="28" height="40" rx="14" fill="#FFFFFF"/>
      <circle cx="238" cy="386" r="38" fill="#FF8D00"/>
      <circle cx="238" cy="386" r="23" fill="#FFF5ED"/>
      <circle cx="238" cy="386" r="45" stroke="#FFFFFF" stroke-opacity="0.35" stroke-width="6"/>
      <path d="M365 303V263" stroke="#FF7900" stroke-width="14" stroke-linecap="round"/>
      <circle cx="365" cy="247" r="20" fill="url(#orangeAntenna)"/>
      <path d="M350 264H380" stroke="#FF7900" stroke-width="12" stroke-linecap="round"/>
    </g>

    <!-- Right robot -->
    <g>
      <rect x="692" y="303" width="264" height="168" rx="82" fill="url(#headShadeRight)"/>
      <rect x="718" y="319" width="212" height="136" rx="68" fill="#FFFFFF" fill-opacity="0.55"/>
      <rect x="744" y="351" width="153" height="78" rx="32" fill="url(#purpleFace)"/>
      <rect x="783" y="371" width="28" height="40" rx="14" fill="#FFFFFF"/>
      <rect x="858" y="371" width="28" height="40" rx="14" fill="#FFFFFF"/>
      <circle cx="963" cy="386" r="38" fill="#6D28F3"/>
      <circle cx="963" cy="386" r="23" fill="#F7F1FF"/>
      <circle cx="963" cy="386" r="45" stroke="#FFFFFF" stroke-opacity="0.35" stroke-width="6"/>
      <path d="M835 303V263" stroke="#6C25F2" stroke-width="14" stroke-linecap="round"/>
      <circle cx="835" cy="247" r="20" fill="url(#purpleAntenna)"/>
      <path d="M820 264H850" stroke="#6C25F2" stroke-width="12" stroke-linecap="round"/>
    </g>
  </g>

  <!-- Connection dots -->
  <g filter="url(#smallShadow)">
    <circle cx="542" cy="386" r="22" fill="#FF8100"/>
    <circle cx="600" cy="386" r="22" fill="#FF43A8"/>
    <circle cx="658" cy="386" r="22" fill="#6927F2"/>
    <circle cx="534" cy="376" r="6" fill="#FFFFFF" fill-opacity="0.45"/>
    <circle cx="592" cy="376" r="6" fill="#FFFFFF" fill-opacity="0.45"/>
    <circle cx="650" cy="376" r="6" fill="#FFFFFF" fill-opacity="0.45"/>
  </g>

  <!-- Document icon -->
  <g filter="url(#smallShadow)">
    <path d="M502 514H650L728 592V746C728 773 706 795 679 795H502C475 795 453 773 453 746V563C453 536 475 514 502 514Z"
          fill="#FFFFFF" fill-opacity="0.96"/>
    <path d="M502 514H650L728 592V746C728 773 706 795 679 795H502C475 795 453 773 453 746V563C453 536 475 514 502 514Z"
          stroke="url(#documentGradient)" stroke-width="22" stroke-linejoin="round"/>
    <path d="M650 516V584C650 596 660 606 672 606H726" fill="#EDE4FF"/>
    <path d="M650 516V584C650 596 660 606 672 606H726" stroke="#4F17DF" stroke-width="16" stroke-linejoin="round"/>
    <rect x="502" y="604" width="126" height="20" rx="10" fill="url(#documentGradient)"/>
    <rect x="502" y="653" width="163" height="20" rx="10" fill="url(#documentGradient)"/>
    <rect x="502" y="702" width="150" height="20" rx="10" fill="url(#documentGradient)"/>
    <rect x="502" y="751" width="112" height="20" rx="10" fill="url(#documentGradient)"/>
    <path d="M485 548C489 538 498 531 509 531H638" stroke="#FFFFFF" stroke-opacity="0.52" stroke-width="9" stroke-linecap="round"/>
  </g>
</svg>
